<svg width="97" height="20" viewBox="0 0 97 20" fill="none" xmlns="http://www.w3.org/2000/svg">
<path d="M0.700195 1.47307H4.07668V15.1231H0.700195V1.47307ZM5.42306 9.98857C5.42306 6.60757 7.52678 4.58107 10.6824 4.58107C13.838 4.58107 15.9417 6.60757 15.9417 9.98857C15.9417 13.3696 13.9116 15.4171 10.6824 15.4171C7.45315 15.4171 5.42306 13.4431 5.42306 9.98857ZM12.5968 9.98857C12.5968 8.13007 11.871 7.03807 10.7139 7.03807C9.55687 7.03807 8.84161 8.08807 8.84161 9.98857C8.84161 11.8891 9.55687 12.9286 10.7139 12.9286C11.871 12.9286 12.6178 11.8891 12.6178 9.99907L12.5968 9.98857ZM17.2881 15.8266H20.5488C20.6973 16.177 20.9565 16.4693 21.287 16.6589C21.6175 16.8485 22.001 16.9249 22.3791 16.8766C23.6729 16.8766 24.3461 16.1836 24.3461 15.1546V13.2646H24.3566C24.0779 13.8531 23.6274 14.3436 23.0641 14.6716C22.5009 14.9996 21.8513 15.1496 21.201 15.1021C18.7291 15.1021 17.0882 13.2226 17.0882 9.98857C17.0882 6.75457 18.6555 4.73857 21.2957 4.73857C21.9627 4.70295 22.6243 4.87468 23.1895 5.23009C23.7546 5.58551 24.1955 6.10712 24.4512 6.72307H24.3566V4.82257H27.7015V15.0496C27.7015 17.5171 25.5136 19.0606 22.2949 19.0606C19.3707 19.0501 17.4984 17.7166 17.3091 15.8371L17.2881 15.8266ZM24.3566 9.98857C24.3566 8.34007 23.5992 7.30057 22.4001 7.30057C21.201 7.30057 20.4647 8.35057 20.4647 9.98857C20.4647 11.6266 21.1905 12.5926 22.4001 12.5926C23.6098 12.5926 24.3566 11.7001 24.3566 9.98857ZM29.0374 9.98857C29.0374 6.60757 31.1411 4.58107 34.2967 4.58107C37.4523 4.58107 39.556 6.60757 39.556 9.98857C39.556 13.3696 37.5154 15.4171 34.2967 15.4171C31.078 15.4171 29.0584 13.4431 29.0584 9.98857H29.0374ZM36.2111 9.98857C36.2111 8.13007 35.4748 7.03807 34.3282 7.03807C33.1817 7.03807 32.4559 8.08807 32.4559 9.98857C32.4559 11.8891 33.1712 12.9286 34.3282 12.9286C35.4853 12.9286 36.2321 11.8891 36.2321 9.99907L36.2111 9.98857ZM40.9234 2.33408C40.9087 1.99074 40.9972 1.65088 41.1777 1.3582C41.3581 1.06551 41.6221 0.833404 41.9357 0.691728C42.2493 0.550053 42.5983 0.505293 42.9376 0.563202C43.2769 0.621111 43.5911 0.779043 43.8398 1.01668C44.0885 1.25432 44.2602 1.56079 44.333 1.89667C44.4057 2.23256 44.3761 2.58249 44.248 2.90144C44.1199 3.2204 43.8991 3.4938 43.6141 3.68647C43.329 3.87914 42.9927 3.98226 42.6485 3.98257C42.4284 3.98815 42.2095 3.95006 42.0044 3.8705C41.7992 3.79094 41.612 3.6715 41.4535 3.51912C41.2949 3.36673 41.1683 3.18444 41.0809 2.98282C40.9935 2.78119 40.9471 2.56424 40.9444 2.34457L40.9234 2.33408ZM40.9234 4.81207H44.342V15.1651H40.976L40.9234 4.81207ZM56.6382 9.98857C56.6382 13.3591 55.1235 15.3121 52.5465 15.3121C51.8867 15.3527 51.2303 15.1902 50.666 14.8466C50.1017 14.503 49.6566 13.9948 49.3909 13.3906H49.3278V18.4936H45.9513V4.84357H49.3067V6.69157H49.3699C49.6265 6.0755 50.0672 5.55339 50.6319 5.19639C51.1966 4.83939 51.8578 4.66486 52.5254 4.69657C55.1761 4.67557 56.7013 6.61807 56.7013 9.99907L56.6382 9.98857ZM53.1986 9.98857C53.1986 8.35057 52.4308 7.29007 51.2422 7.29007C50.0536 7.29007 49.3067 8.34007 49.2962 9.98857C49.2857 11.6371 50.0536 12.6766 51.2422 12.6766C52.4308 12.6766 53.2617 11.7001 53.2617 9.99907L53.1986 9.98857ZM62.4024 4.57057C65.2319 4.57057 66.9885 5.90407 67.0096 8.04607H63.9276C63.9276 7.30057 63.307 6.83857 62.3814 6.83857C61.4557 6.83857 61.014 7.19557 61.014 7.73107C61.014 8.26657 61.4032 8.43457 62.1815 8.59207L64.3484 9.03307C66.4521 9.47407 67.2936 10.3141 67.2936 11.8786C67.2936 13.9786 65.3476 15.4066 62.455 15.4066C59.5624 15.4066 57.6796 14.0206 57.5428 11.9101H60.8141C60.9088 12.6766 61.5189 13.1281 62.5076 13.1281C63.4964 13.1281 63.9592 12.8131 63.9592 12.2566C63.9592 11.7001 63.6436 11.6056 62.8337 11.4376L60.8772 11.0281C58.8471 10.5976 57.7847 9.53707 57.7847 7.95157C57.8479 5.89357 59.615 4.58107 62.4655 4.58107L62.4024 4.57057ZM78.6011 15.1546H75.3298V13.2121H75.2667C75.0836 13.86 74.6848 14.4263 74.136 14.8176C73.5872 15.2089 72.9212 15.4018 72.2479 15.3646C71.7395 15.3811 71.2333 15.2901 70.7626 15.0976C70.2919 14.9051 69.8673 14.6154 69.5167 14.2475C69.166 13.8797 68.8973 13.442 68.7281 12.9631C68.5589 12.4843 68.493 11.9751 68.5348 11.4691V4.82257H71.9113V10.7446C71.9113 11.9626 72.5529 12.6241 73.6048 12.6241C73.8515 12.6222 74.095 12.5675 74.3188 12.4637C74.5426 12.3599 74.7415 12.2093 74.902 12.0222C75.0626 11.8351 75.181 11.6158 75.2493 11.3791C75.3177 11.1424 75.3344 10.8938 75.2982 10.6501V4.82257H78.6642L78.6011 15.1546ZM80.2315 4.81207H83.5133V6.80707H83.5869C83.7683 6.16798 84.1567 5.60694 84.6916 5.21176C85.2264 4.81657 85.8774 4.60954 86.5427 4.62307C87.2105 4.56511 87.876 4.7579 88.409 5.16374C88.942 5.56959 89.3042 6.1593 89.4248 6.81757H89.572C89.7822 6.15578 90.2056 5.58186 90.7762 5.185C91.3469 4.78815 92.0329 4.5906 92.7276 4.62307C93.1893 4.60553 93.6496 4.68552 94.0782 4.85781C94.5069 5.0301 94.8942 5.2908 95.2149 5.62285C95.5357 5.9549 95.7825 6.35081 95.9394 6.78468C96.0962 7.21855 96.1595 7.6806 96.1251 8.14057V15.1651H92.7276V9.00157C92.7276 7.95157 92.2332 7.36357 91.276 7.36357C91.0637 7.36009 90.8532 7.40248 90.6589 7.48783C90.4645 7.57318 90.291 7.69947 90.1501 7.85805C90.0092 8.01663 89.9044 8.20373 89.8427 8.40655C89.7811 8.60936 89.7641 8.82309 89.7929 9.03307V15.1651H86.5742V8.97007C86.5742 7.92007 86.0588 7.36357 85.1332 7.36357C84.9186 7.36187 84.7062 7.40599 84.5102 7.49298C84.3142 7.57997 84.1391 7.7078 83.9966 7.86791C83.8541 8.02803 83.7476 8.21671 83.6842 8.42129C83.6208 8.62587 83.602 8.84163 83.629 9.05407V15.1651H80.2525L80.2315 4.81207Z" fill="white" fill-opacity="0.45"/>
</svg>
